<svg xmlns="http://www.w3.org/2000/svg"  viewBox="0 0 60 60"><g transform="translate(-1470 -1137)"><rect width="60" height="60" rx="17" transform="translate(1470 1137)" fill="#eff4fe"/><g transform="translate(1483 1150)"><path d="M0,0H34V34H0Z" fill="none"/><g transform="translate(3 3)"><path d="M2.53,2.384l.742.742a1.056,1.056,0,0,0,1.484,0h0a1.056,1.056,0,0,0,0-1.484L3.524.41a1.394,1.394,0,0,0-1.974,0L.3,1.641a1.056,1.056,0,0,0,0,1.484h0a1.056,1.056,0,0,0,1.484,0Z" transform="translate(7.102 8.733)" fill="#28457b"/><path d="M6.741,4.9a7.684,7.684,0,0,0,6.65-3.85A.7.7,0,0,0,12.775,0H.707A.709.709,0,0,0,.091,1.05,7.684,7.684,0,0,0,6.741,4.9Z" transform="translate(7.259 16.8)" fill="#28457b"/><path d="M.3,3.125h0a1.056,1.056,0,0,0,1.484,0l.742-.742.742.742a1.056,1.056,0,0,0,1.484,0h0a1.056,1.056,0,0,0,0-1.484L3.523.41a1.394,1.394,0,0,0-1.974,0L.317,1.641A1.044,1.044,0,0,0,.3,3.125Z" transform="translate(15.839 8.733)" fill="#28457b"/><path d="M13.988,28A13.984,13.984,0,0,1,0,14,14,14,0,0,1,23.9,4.1,14,14,0,0,1,13.988,28ZM14,2.8A11.2,11.2,0,0,0,6.08,21.92,11.2,11.2,0,0,0,21.924,6.079,11.136,11.136,0,0,0,14,2.8Z" fill="#28457b"/></g></g></g></svg>