<svg xmlns="http://www.w3.org/2000/svg"  viewBox="0 0 60 60"><g transform="translate(-690 -867)"><rect width="60" height="60" rx="17" transform="translate(690 867)" fill="#eff4fe"/><g transform="translate(703 880)"><path d="M0,0H34V34H0Z" fill="none" opacity="0.87"/><g transform="translate(1.417 1.417)"><path d="M15.586,28.332H2.836A2.839,2.839,0,0,1,0,25.5V11.332a2.763,2.763,0,0,1,.84-2L10.158,0l1.5,1.488a2.132,2.132,0,0,1,.627,1.5l-.047.451L10.9,9.914h8.939a2.837,2.837,0,0,1,2.83,2.836v2.832a2.82,2.82,0,0,1-.2,1.037l-4.279,9.988A2.806,2.806,0,0,1,15.586,28.332ZM8.982,5.188,2.836,11.332V25.5h12.75l4.25-9.918V12.75H7.408Z" transform="translate(8.5)" fill="#28457b"/><rect width="5.667" height="17" transform="translate(0 11.333)" fill="#28457b"/></g></g></g></svg>