<svg id="mosque" xmlns="http://www.w3.org/2000/svg" width="40" height="40" viewBox="0 0 40 40">
  <path id="Path" d="M0,0H40V40H0Z" fill="none"/>
  <g id="mosque-2" data-name="mosque" transform="translate(5 4.998)">
    <g id="Group_9612" data-name="Group 9612" transform="translate(0 0.002)">
      <g id="Group_9611" data-name="Group 9611" transform="translate(0 0)">
        <path id="Path_14785" data-name="Path 14785" d="M27.932,12.708H25.956v-.172A10.968,10.968,0,0,0,15.46,1.611V.516a.514.514,0,0,0-1.028,0v1.1A10.968,10.968,0,0,0,3.956,12.536v.17H1.981A1.986,1.986,0,0,0,0,14.689V29.4a.517.517,0,0,0,.517.517H29.4a.517.517,0,0,0,.517-.517V14.689A1.986,1.986,0,0,0,27.932,12.708ZM5,12.536a9.931,9.931,0,0,1,9.894-9.9h.129a9.931,9.931,0,0,1,9.894,9.9v.17H5v-.17Zm3.7,16.342V27.3a6.263,6.263,0,0,1,12.523,0l.008,1.583Zm13.557,0V27.3a7.3,7.3,0,0,0-14.59,0v1.583H1.034V14.689a.953.953,0,0,1,.947-.947H27.932a.95.95,0,0,1,.947.947l.008,14.189H22.25Z" transform="translate(0 -0.002)" fill="#28457b" stroke="#28457b" stroke-width="2"/>
      </g>
    </g>
  </g>
</svg>
