<svg xmlns="http://www.w3.org/2000/svg" width="60" height="60" viewBox="0 0 60 60">
  <g id="order" transform="translate(-690 -1130)">
    <rect id="Rectangle_7_Copy_2" data-name="Rectangle 7 Copy 2" width="60" height="60" rx="17" transform="translate(690 1130)" fill="#eff4fe"/>
    <g id="shopping_basket-24px" transform="translate(700 1140)">
      <path id="Path_14786" data-name="Path 14786" d="M0,0H40V40H0Z" fill="none"/>
      <path id="Path_14787" data-name="Path 14787" d="M36,13.653H28.017L20.717,2.72a1.654,1.654,0,0,0-1.383-.7,1.629,1.629,0,0,0-1.383.717l-7.3,10.917H2.667A1.672,1.672,0,0,0,1,15.32a1.4,1.4,0,0,0,.067.45L5.3,31.22a3.315,3.315,0,0,0,3.2,2.433H30.167a3.349,3.349,0,0,0,3.217-2.433l4.233-15.45.05-.45A1.672,1.672,0,0,0,36,13.653Zm-16.667-7,4.667,7H14.667ZM30.167,30.32l-21.65.017L4.85,16.987H33.833Zm-10.833-10a3.333,3.333,0,1,0,3.333,3.333A3.343,3.343,0,0,0,19.333,20.32Z" transform="translate(0.667 1.347)" fill="#28457b"/>
    </g>
  </g>
</svg>
