<svg xmlns="http://www.w3.org/2000/svg" width="60" height="60" viewBox="0 0 60 60">
  <g id="Product" transform="translate(-1080 -1137)">
    <rect id="Rectangle_7_Copy_2" data-name="Rectangle 7 Copy 2" width="60" height="60" rx="17" transform="translate(1080 1137)" fill="#eff4fe"/>
    <g id="Product-2" data-name="Product" transform="translate(1090 1147)">
      <g id="product-3" data-name="product" transform="translate(5 3.333)">
        <path id="Path_879" data-name="Path 879" d="M101.161,43.367a4.513,4.513,0,0,1,4.51,0h0l10.413,6.013a4.509,4.509,0,0,1,2.256,3.907h0V65.313a4.51,4.51,0,0,1-2.255,3.906h0l-10.415,6.013a4.51,4.51,0,0,1-2.155.6.956.956,0,0,1-.1,0l-.1,0a4.512,4.512,0,0,1-2.155-.6h0L90.747,69.218a4.509,4.509,0,0,1-2.256-3.907h0V53.287a4.509,4.509,0,0,1,.585-2.222l.019-.034L89.112,51a4.5,4.5,0,0,1,1.635-1.622h0ZM91.5,54.153V65.311a1.5,1.5,0,0,0,.752,1.3h0l9.661,5.579V60.166L91.5,54.153Zm23.835,0-10.414,6.013V72.192l9.664-5.578a1.5,1.5,0,0,0,.741-1.125l.01-.177,0-11.158Zm-5-4.624L99.914,55.54l3.5,2.022,10.413-6.013-3.5-2.018Zm-6.164-3.559a1.505,1.505,0,0,0-1.5,0h0L93,51.549l3.9,2.254,10.419-6.008Z" transform="translate(-88.491 -42.764)" fill="#28457b"/>
        <path id="Path_880" data-name="Path 880" d="M220.782,496.955a1.5,1.5,0,0,1,1.9-.625l.157.079,4.511,2.616A1.5,1.5,0,0,1,226,501.706l-.157-.079-4.511-2.616A1.5,1.5,0,0,1,220.782,496.955Z" transform="translate(-215.924 -480.226)" fill="#28457b"/>
      </g>
      <path id="Path_888" data-name="Path 888" d="M0,0H40V40H0Z" fill="none"/>
    </g>
  </g>
</svg>
