<svg id="safe-box" xmlns="http://www.w3.org/2000/svg" width="40" height="40" viewBox="0 0 40 40">
  <path id="Path_14779" data-name="Path 14779" d="M0,0H40V40H0Z" fill="none"/>
  <path id="Path_14780" data-name="Path 14780" d="M36.131,7.212,33.506,4.039A2.742,2.742,0,0,0,31.333,3H8.667A2.807,2.807,0,0,0,6.476,4.039L3.869,7.212A3.7,3.7,0,0,0,3,9.611V33.222A3.789,3.789,0,0,0,6.778,37H33.222A3.789,3.789,0,0,0,37,33.222V9.611A3.7,3.7,0,0,0,36.131,7.212ZM9.12,6.778H30.88L32.41,8.61H7.609L9.12,6.778ZM6.778,33.222V12.444H33.222V33.222Z" transform="translate(0 0)" fill="#28457b"/>
</svg>
