<svg xmlns="http://www.w3.org/2000/svg" viewBox="0 0 60 60"><g transform="translate(-1470 -867)"><rect width="60" height="60" rx="17" transform="translate(1470 867)" fill="#eff4fe"/><g transform="translate(1480 877)"><path d="M0,0H40V40H0Z" fill="none"/><g transform="translate(3.333 8.333)"><path d="M5.832,11.666a5.833,5.833,0,1,1,5.832-5.832A5.84,5.84,0,0,1,5.832,11.666Zm0-8.334a2.5,2.5,0,1,0,2.5,2.5A2.5,2.5,0,0,0,5.832,3.332Z" transform="translate(5.833)" fill="#28457b"/><path d="M21.664,8.75h-20A1.667,1.667,0,0,1,0,7.084V5.836c0-1.2.76-2.928,4.371-4.375A21.653,21.653,0,0,1,11.668,0a21.653,21.653,0,0,1,7.3,1.461c3.611,1.447,4.371,3.178,4.371,4.375V7.084A1.671,1.671,0,0,1,21.664,8.75Zm-10-5.414A15.994,15.994,0,0,0,3.9,5.418H19.43A15.976,15.976,0,0,0,11.668,3.336Z" transform="translate(0 14.583)" fill="#28457b"/><path d="M0,0A6.988,6.988,0,0,1,3.267,5.733V8.65h5A1.672,1.672,0,0,0,9.933,6.983V5.733C9.933,2.367,4.1.45,0,0Z" transform="translate(23.4 14.683)" fill="#28457b"/><path d="M2.5,11.667A5.833,5.833,0,0,0,2.5,0,5.743,5.743,0,0,0,0,.583a9.068,9.068,0,0,1,1.667,5.25A9.068,9.068,0,0,1,0,11.083,5.743,5.743,0,0,0,2.5,11.667Z" transform="translate(19.167)" fill="#28457b"/></g></g></g></svg>