<?xml version="1.0" encoding="utf-8"?>
<!-- Generator: Adobe Illustrator 24.3.0, SVG Export Plug-In . SVG Version: 6.00 Build 0)  -->
<svg version="1.1" id="Layer_1" xmlns="http://www.w3.org/2000/svg" xmlns:xlink="http://www.w3.org/1999/xlink" x="0px" y="0px"
	 viewBox="0 0 60 60" style="enable-background:new 0 0 60 60;" xml:space="preserve">
<style type="text/css">
	.st0{fill-rule:evenodd;clip-rule:evenodd;fill:#EFF4FE;}
	.st1{fill:none;}
	.st2{fill:#28457B;}
</style>
<desc>Created with Sketch.</desc>
<g id="Page-1">
	<g id="zarincard-copy-3" transform="translate(-449.000000, -1143.000000)">
		<g id="Group-26" transform="translate(449.000000, 1143.000000)">
			<g id="Group-14">
				<path id="Rectangle-7-Copy-5" class="st0" d="M21.8,0h16.4c7.6,0,10.3,0.8,13.1,2.3s4.9,3.7,6.4,6.4c1.5,2.8,2.3,5.5,2.3,13.1
					v16.4c0,7.6-0.8,10.3-2.3,13.1c-1.5,2.8-3.7,4.9-6.4,6.4c-2.8,1.5-5.5,2.3-13.1,2.3H21.8c-7.6,0-10.3-0.8-13.1-2.3
					c-2.8-1.5-4.9-3.7-6.4-6.4S0,45.8,0,38.2V21.8c0-7.6,0.8-10.3,2.3-13.1s3.7-4.9,6.4-6.4S14.2,0,21.8,0z"/>
			</g>
			<g id="Group-22" transform="translate(10.000000, 10.000000)">
				<g id="Group-20-Copy">
					<g id="Done_x2C_-Check-Copy">
						<polygon id="Path" class="st1" points="0,0 40,0 40,40 0,40 						"/>
					</g>
				</g>
				<g id="Group-21" transform="translate(8.000000, 4.000000)">
					<g id="Group-16">
						<g id="verified">
							<path class="st2" d="M12,25.8c0,0-0.1,0-0.1,0c-1.9,0-3.5-1-4.5-2.5c-1.8,0.4-3.7-0.1-5.1-1.5c-1.4-1.4-1.9-3.3-1.5-5.1
								c-1.5-1-2.5-2.7-2.5-4.6c0-2,1-3.7,2.5-4.7C0.4,5.5,0.9,3.6,2.3,2.2c1.4-1.3,3.3-1.8,5-1.4c1-1.5,2.7-2.5,4.6-2.5
								s3.6,1,4.6,2.5c1.8-0.4,3.7,0.1,5.1,1.5c1.4,1.4,1.9,3.3,1.5,5.1c1.5,1,2.5,2.7,2.5,4.6c0,0,0,0,0,0c0,1.9-1,3.7-2.5,4.6
								c0.4,1.8-0.1,3.7-1.5,5.1c-1.4,1.4-3.3,1.9-5.1,1.5C15.6,24.8,13.9,25.8,12,25.8z M8.3,19.2c0.2,0,0.5,0,0.7,0.1
								c0.5,0.2,0.9,0.7,1,1.3c0.2,0.9,1,1.6,1.9,1.6c0.9,0,1.7-0.6,2-1.5l0-0.1c0.1-0.6,0.6-1.2,1.2-1.4c0.6-0.2,1.2-0.1,1.7,0.3
								c0.8,0.4,1.8,0.3,2.4-0.4c0.7-0.7,0.8-1.7,0.3-2.5c0,0-0.1-0.1-0.1-0.1c-0.2-0.5-0.3-1.1,0-1.6c0.2-0.5,0.7-0.9,1.2-1
								c1-0.2,1.6-1,1.6-2c0-1-0.7-1.8-1.6-2c-0.6-0.1-1-0.5-1.3-1c-0.2-0.5-0.2-1.2,0.2-1.6c0.5-0.8,0.4-1.9-0.3-2.6
								c-0.7-0.7-1.8-0.8-2.6-0.3c-0.5,0.3-1.1,0.4-1.6,0.2c-0.5-0.2-0.9-0.7-1-1.3c-0.2-0.9-1-1.6-2-1.6s-1.8,0.7-2,1.6
								C9.9,4,9.5,4.4,9,4.7C8.4,4.9,7.8,4.8,7.3,4.5C6.5,4,5.5,4.1,4.8,4.7C4.1,5.4,4,6.5,4.5,7.3c0.3,0.5,0.4,1.1,0.2,1.7
								S4,9.9,3.4,10c-1,0.2-1.7,1-1.7,2c0,1,0.7,1.8,1.6,2c0.6,0.1,1,0.5,1.3,1c0.2,0.5,0.2,1.2-0.2,1.6c-0.5,0.8-0.4,1.9,0.3,2.6
								c0.7,0.7,1.8,0.8,2.6,0.3C7.6,19.3,7.9,19.2,8.3,19.2z"/>
						</g>
					</g>
					<path class="st2" d="M6.6,34.3c-0.4,0-0.7-0.1-1-0.3c-0.5-0.4-0.8-1-0.7-1.6L6,21.8l3.5,0.4l-0.8,7.5l2.7-1.3
						c0.5-0.2,1.1-0.2,1.5,0l2.1,1.1l-1-7.2l3.5-0.5l1.4,10.5c0.1,0.6-0.2,1.3-0.7,1.7c-0.5,0.4-1.2,0.4-1.8,0.1l-4.3-2.2l-4.8,2.2
						C7.1,34.3,6.9,34.3,6.6,34.3z"/>
				</g>
			</g>
		</g>
	</g>
</g>
</svg>
