<?xml version="1.0" encoding="utf-8"?>
<!-- Generator: Adobe Illustrator 24.3.0, SVG Export Plug-In . SVG Version: 6.00 Build 0)  -->
<svg version="1.1" id="Layer_1" xmlns="http://www.w3.org/2000/svg" xmlns:xlink="http://www.w3.org/1999/xlink" x="0px" y="0px"
	 viewBox="0 0 60 60" style="enable-background:new 0 0 60 60;" xml:space="preserve">
<style type="text/css">
	.st0{fill-rule:evenodd;clip-rule:evenodd;fill:#EFF4FE;}
	.st1{fill:none;}
	.st2{fill:#28457B;}
</style>
<desc>Created with Sketch.</desc>
<g id="Page-1">
	<g id="zarincard-copy-3" transform="translate(-449.000000, -906.000000)">
		<g id="Group-23" transform="translate(449.000000, 906.000000)">
			<g id="Group-16">
				<path id="Rectangle-7-Copy-3" class="st0" d="M21.8,0h16.4c7.6,0,10.3,0.8,13.1,2.3s4.9,3.7,6.4,6.4c1.5,2.8,2.3,5.5,2.3,13.1
					v16.4c0,7.6-0.8,10.3-2.3,13.1c-1.5,2.8-3.7,4.9-6.4,6.4c-2.8,1.5-5.5,2.3-13.1,2.3H21.8c-7.6,0-10.3-0.8-13.1-2.3
					c-2.8-1.5-4.9-3.7-6.4-6.4S0,45.8,0,38.2V21.8c0-7.6,0.8-10.3,2.3-13.1s3.7-4.9,6.4-6.4S14.2,0,21.8,0z"/>
			</g>
			<g id="users-04" transform="translate(10.000000, 10.000000)">
				<polygon id="Path" class="st1" points="0,0 40,0 40,40 0,40 				"/>
				<g id="Group" transform="translate(3.333333, 6.666667)">
					<path class="st2" d="M16.7,20.5c-1.5,0-3-0.6-4.2-1.7c-1.1-1.1-1.7-2.6-1.7-4.2c0-1.6,0.6-3.1,1.7-4.2c1.1-1.1,2.6-1.7,4.2-1.7
						c1.6,0,3.1,0.6,4.2,1.7l0,0c1.1,1.1,1.7,2.6,1.7,4.2c0,1.6-0.6,3.1-1.7,4.2C19.7,19.9,18.2,20.5,16.7,20.5z M16.7,12.2
						c-0.6,0-1.3,0.3-1.7,0.7c-0.9,0.9-0.9,2.5,0,3.4c0.9,0.9,2.5,0.9,3.4,0c0.9-0.9,0.9-2.5,0-3.4l0,0
						C17.9,12.4,17.3,12.2,16.7,12.2z"/>
					<path class="st2" d="M25.8,10.5c-1.6,0-3.1-0.6-4.2-1.7c-2.3-2.3-2.3-6.1,0-8.4c1.1-1.1,2.6-1.7,4.2-1.7s3.1,0.6,4.2,1.7
						c2.3,2.3,2.3,6.1,0,8.4C28.9,9.9,27.4,10.5,25.8,10.5z M25.8,2.2c-0.6,0-1.2,0.2-1.7,0.7c-0.9,0.9-0.9,2.5,0,3.4
						c0.9,0.9,2.5,0.9,3.4,0c0.9-0.9,0.9-2.5,0-3.4C27,2.4,26.4,2.2,25.8,2.2z"/>
					<path class="st2" d="M33.3,17.7c-0.4,0-0.8-0.1-1.1-0.4c-1.4-1.2-3.5-1.8-5.6-1.8c-1,0-1.8-0.8-1.8-1.7s0.8-1.8,1.8-1.8
						c2.9,0,5.7,0.9,7.8,2.6c0.8,0.6,0.9,1.7,0.3,2.5C34.4,17.5,33.8,17.7,33.3,17.7z"/>
					<path class="st2" d="M7.5,10.5c-1.5,0-3-0.6-4.2-1.7C1,6.5,1,2.7,3.3,0.4s6.1-2.3,8.4,0c1.1,1.1,1.7,2.6,1.7,4.2
						c0,1.6-0.6,3.1-1.7,4.2C10.6,9.9,9,10.5,7.5,10.5z M7.5,2.2c-0.6,0-1.2,0.2-1.7,0.7c-0.9,0.9-0.9,2.5,0,3.4
						c0.9,0.9,2.5,0.9,3.4,0c0.5-0.5,0.7-1.1,0.7-1.7S9.7,3.3,9.2,2.9v0C8.8,2.4,8.1,2.2,7.5,2.2z"/>
					<path class="st2" d="M0,17.7c-0.5,0-1-0.2-1.4-0.7c-0.6-0.8-0.5-1.9,0.3-2.5C1,12.9,3.8,12,6.7,12c1,0,1.8,0.8,1.8,1.8
						s-0.8,1.7-1.8,1.7c-2.1,0-4.1,0.7-5.6,1.8C0.8,17.6,0.4,17.7,0,17.7z"/>
					<path class="st2" d="M24.3,28c-0.4,0-0.8-0.1-1.1-0.4c-1.7-1.3-4.2-2.1-6.6-2.1c-2.4,0-4.9,0.8-6.6,2.1
						c-0.8,0.6-1.9,0.5-2.5-0.3c-0.6-0.8-0.5-1.9,0.3-2.5c2.4-1.8,5.5-2.9,8.7-2.9s6.4,1,8.7,2.9c0.8,0.6,0.9,1.7,0.3,2.5
						C25.4,27.8,24.8,28,24.3,28z"/>
				</g>
			</g>
		</g>
	</g>
</g>
</svg>
