<?xml version="1.0" encoding="utf-8"?>
<!-- Generator: Adobe Illustrator 24.3.0, SVG Export Plug-In . SVG Version: 6.00 Build 0)  -->
<svg version="1.1" id="Layer_1" xmlns="http://www.w3.org/2000/svg" xmlns:xlink="http://www.w3.org/1999/xlink" x="0px" y="0px"
	 viewBox="0 0 60 60" style="enable-background:new 0 0 60 60;" xml:space="preserve">
<style type="text/css">
	.st0{fill-rule:evenodd;clip-rule:evenodd;fill:#EFF4FE;}
	.st1{fill:none;}
	.st2{fill:#28457B;}
</style>
<desc>Created with Sketch.</desc>
<g id="Page-1">
	<g id="zarincard-copy-3" transform="translate(-841.000000, -1142.000000)">
		<g id="Group-34" transform="translate(841.000000, 1142.000000)">
			<path id="Rectangle-7-Copy-6" class="st0" d="M21.8,0h16.4c7.6,0,10.3,0.8,13.1,2.3s4.9,3.7,6.4,6.4c1.5,2.8,2.3,5.5,2.3,13.1
				v16.4c0,7.6-0.8,10.3-2.3,13.1c-1.5,2.8-3.7,4.9-6.4,6.4c-2.8,1.5-5.5,2.3-13.1,2.3H21.8c-7.6,0-10.3-0.8-13.1-2.3
				c-2.8-1.5-4.9-3.7-6.4-6.4S0,45.8,0,38.2V21.8c0-7.6,0.8-10.3,2.3-13.1s3.7-4.9,6.4-6.4S14.2,0,21.8,0z"/>
			<g id="Group-20" transform="translate(10.000000, 10.000000)">
				<g id="Done_x2C_-Check-Copy">
					<polygon id="Path" class="st1" points="0,0 40,0 40,40 0,40 					"/>
				</g>
				<path class="st2" d="M12.3,33.8c-0.2,0-0.4,0-0.6-0.1c-0.5-0.2-0.9-0.5-1.2-1c-0.2-0.4-0.3-0.9-0.2-1.3l1.3-7.5
					c0.1-0.3-0.1-0.7-0.3-0.9l-5.5-5.3c-0.8-0.8-0.8-2.1,0-2.9c0.3-0.3,0.7-0.5,1.2-0.6l7.5-1.1c0.3,0,0.6-0.3,0.8-0.6l3.4-6.8
					c0.2-0.5,0.7-0.9,1.2-1c0.5-0.2,1.1-0.1,1.6,0.1c0.4,0.2,0.7,0.5,0.9,0.9l3.4,6.8c0.1,0.3,0.4,0.5,0.8,0.6l7.5,1.1
					c0.5,0.1,1,0.4,1.3,0.8c0.3,0.4,0.5,1,0.4,1.5c-0.1,0.4-0.3,0.8-0.6,1.2L29.7,23c-0.2,0.2-0.3,0.6-0.3,0.9l1.3,7.5
					c0.1,0.5,0,1.1-0.3,1.5c-0.3,0.4-0.8,0.7-1.3,0.8c-0.4,0.1-0.9,0-1.3-0.2L21,30c-0.3-0.2-0.7-0.2-0.9,0l0,0l-6.7,3.5
					C13,33.7,12.7,33.8,12.3,33.8z M13.8,32L13.8,32C13.8,32,13.8,32,13.8,32z M20.5,26.3c0.7,0,1.5,0.2,2.1,0.5l4,2.1l-0.8-4.5
					c-0.3-1.5,0.2-3,1.3-4.1l3.2-3.2L26,16.6c-1.5-0.2-2.8-1.2-3.5-2.5l-2-4.1l-2,4.1c-0.7,1.4-2,2.3-3.5,2.5l-4.5,0.7l3.2,3.2
					c1.1,1.1,1.6,2.6,1.3,4.1L14.4,29l4-2.1C19,26.5,19.8,26.3,20.5,26.3z M33.5,17.7C33.5,17.7,33.5,17.7,33.5,17.7L33.5,17.7z
					 M7.5,17.7L7.5,17.7C7.5,17.7,7.5,17.7,7.5,17.7z"/>
			</g>
		</g>
	</g>
</g>
</svg>
