<?xml version="1.0" encoding="utf-8"?>
<!-- Generator: Adobe Illustrator 24.3.0, SVG Export Plug-In . SVG Version: 6.00 Build 0)  -->
<svg version="1.1" id="Layer_1" xmlns="http://www.w3.org/2000/svg" xmlns:xlink="http://www.w3.org/1999/xlink" x="0px" y="0px"
	 viewBox="0 0 60 60" style="enable-background:new 0 0 60 60;" xml:space="preserve">
<style type="text/css">
	.st0{fill-rule:evenodd;clip-rule:evenodd;fill:#EFF4FE;}
	.st1{fill:none;}
	.st2{fill:#28457B;}
</style>
<desc>Created with Sketch.</desc>
<g id="Page-1">
	<g id="zarincard-copy-3" transform="translate(-840.000000, -906.000000)">
		<g id="Group-36" transform="translate(840.000000, 906.000000)">
			<g id="Group-6">
				<path id="Rectangle-7-Copy" class="st0" d="M21.8,0h16.4c7.6,0,10.3,0.8,13.1,2.3s4.9,3.7,6.4,6.4c1.5,2.8,2.3,5.5,2.3,13.1
					v16.4c0,7.6-0.8,10.3-2.3,13.1c-1.5,2.8-3.7,4.9-6.4,6.4c-2.8,1.5-5.5,2.3-13.1,2.3H21.8c-7.6,0-10.3-0.8-13.1-2.3
					c-2.8-1.5-4.9-3.7-6.4-6.4S0,45.8,0,38.2V21.8c0-7.6,0.8-10.3,2.3-13.1s3.7-4.9,6.4-6.4S14.2,0,21.8,0z"/>
				<polygon id="Path" class="st1" points="10,10 50,10 50,50 10,50 				"/>
			</g>
			<g id="Group-8" transform="translate(9.000000, 9.000000)">
				<polygon id="Path_1_" class="st1" points="43,43 0,43 0,0 43,0 				"/>
				<g id="Group-11" transform="translate(8.666667, 8.666667)">
					<path class="st2" d="M13,27.8H4.3c-3.4,0-6.1-2.7-6.1-6.1V4.3C-1.8,1,1-1.8,4.3-1.8h17.3c3.4,0,6.1,2.7,6.1,6.1V13
						c0,1-0.8,1.7-1.8,1.7S24.3,14,24.3,13V4.3c0-1.4-1.2-2.6-2.6-2.6H4.3c-1.4,0-2.6,1.1-2.6,2.6v17.3c0,1.4,1.2,2.6,2.6,2.6H13
						c1,0,1.7,0.8,1.7,1.8S14,27.8,13,27.8z"/>
					<path class="st2" d="M22.5,30.1c-1,0-1.8-0.8-1.8-1.8v-9.7c0-1,0.8-1.8,1.8-1.8s1.8,0.8,1.8,1.8v9.7
						C24.3,29.3,23.5,30.1,22.5,30.1z"/>
					<path class="st2" d="M27.3,25.3h-9.7c-1,0-1.7-0.8-1.7-1.8s0.8-1.8,1.7-1.8h9.7c1,0,1.8,0.8,1.8,1.8S28.3,25.3,27.3,25.3z"/>
				</g>
				<g id="Group-9" transform="translate(18.250000, 15.000000)">
					<path class="st2" d="M3.5,4c-1,0-1.8-0.8-1.8-1.8V0c0-1,0.8-1.8,1.8-1.8c1,0,1.8,0.8,1.8,1.8v2.2C5.2,3.2,4.5,4,3.5,4z"/>
					<path class="st2" d="M3.5,15.8c-1,0-1.8-0.8-1.8-1.8v-2.2c0-1,0.8-1.8,1.8-1.8c1,0,1.8,0.8,1.8,1.8V14
						C5.2,15,4.5,15.8,3.5,15.8z"/>
					<path class="st2" d="M4.5,13.5H2.6c-2.3,0-4.2-1.7-4.4-3.8c-0.1-1,0.7-1.8,1.6-1.9c0.1,0,0.2,0,0.2,0C-1,7.1-1.8,5.8-1.8,4.5
						c0-2.2,1.9-4,4.2-4h1.9c2.3,0,4.2,1.7,4.4,3.8c0.1,1-0.7,1.8-1.6,1.9c-0.1,0-0.2,0-0.2,0C8,6.9,8.7,8.2,8.7,9.5
						C8.7,11.7,6.9,13.5,4.5,13.5z M1.2,8.3C1.5,8.6,1.7,9,1.8,9.4c0,0.3,0.4,0.6,0.9,0.6h1.9c0.4,0,0.7-0.2,0.7-0.5
						c0-0.2-0.2-0.4-0.5-0.5L1.5,8.3C1.4,8.3,1.3,8.3,1.2,8.3z M2.5,4C2.1,4,1.8,4.2,1.8,4.5c0,0.2,0.2,0.4,0.5,0.5l3.3,0.7
						c0.1,0,0.2,0,0.2,0.1C5.5,5.4,5.3,5,5.2,4.6C5.2,4.3,4.9,4,4.4,4H2.5z"/>
				</g>
			</g>
		</g>
	</g>
</g>
</svg>
