<?xml version="1.0" encoding="utf-8"?>
<!-- Generator: Adobe Illustrator 24.3.0, SVG Export Plug-In . SVG Version: 6.00 Build 0)  -->
<svg version="1.1" id="Layer_1" xmlns="http://www.w3.org/2000/svg" xmlns:xlink="http://www.w3.org/1999/xlink" x="0px" y="0px"
	 viewBox="0 0 60 60" style="enable-background:new 0 0 60 60;" xml:space="preserve">
<style type="text/css">
	.st0{fill-rule:evenodd;clip-rule:evenodd;fill:#EFF4FE;}
	.st1{fill:none;}
	.st2{fill:#28457B;}
</style>
<desc>Created with Sketch.</desc>
<g id="Page-1">
	<g id="zarincard-copy-3" transform="translate(-449.000000, -1014.000000)">
		<g id="Group-25" transform="translate(449.000000, 1014.000000)">
			<g id="Group-12">
				<path id="Rectangle-7-Copy-2" class="st0" d="M21.8,0h16.4c7.6,0,10.3,0.8,13.1,2.3s4.9,3.7,6.4,6.4c1.5,2.8,2.3,5.5,2.3,13.1
					v16.4c0,7.6-0.8,10.3-2.3,13.1c-1.5,2.8-3.7,4.9-6.4,6.4c-2.8,1.5-5.5,2.3-13.1,2.3H21.8c-7.6,0-10.3-0.8-13.1-2.3
					c-2.8-1.5-4.9-3.7-6.4-6.4S0,45.8,0,38.2V21.8c0-7.6,0.8-10.3,2.3-13.1s3.7-4.9,6.4-6.4S14.2,0,21.8,0z"/>
			</g>
			<g id="business-products-13-2" transform="translate(10.000000, 10.000000)">
				<g id="business-products-13">
					<polygon id="Path" class="st1" points="0,0 40,0 40,40 0,40 					"/>
					<g id="Group" transform="translate(3.333333, 5.000000)">
						<path class="st2" d="M26.7,31.8h-20c-2.8,0-5.1-2.3-5.1-5.1v-3.4c0-1,0.8-1.8,1.8-1.8s1.8,0.8,1.8,1.8v3.4
							c0,0.9,0.7,1.6,1.6,1.6h20c0.9,0,1.6-0.7,1.6-1.6V12.9c0-1,0.8-1.8,1.8-1.8s1.8,0.8,1.8,1.8v13.8
							C31.7,29.5,29.5,31.8,26.7,31.8z"/>
						<path class="st2" d="M3.3,19.2c-1,0-1.8-0.8-1.8-1.8V3.3c0-2.8,2.3-5.1,5.1-5.1h20c2.8,0,5.1,2.3,5.1,5.1v3.7
							c0,1-0.8,1.8-1.8,1.8S28.2,8,28.2,7.1V3.3c0-0.9-0.7-1.6-1.6-1.6h-20c-0.9,0-1.6,0.7-1.6,1.6v14.1C5.1,18.4,4.3,19.2,3.3,19.2
							z"/>
						<path class="st2" d="M3.3,25c-1.2,0-2.4-0.5-3.3-1.4c-0.9-0.9-1.4-2.1-1.4-3.3c0-1.2,0.5-2.4,1.4-3.3c1.8-1.8,4.8-1.8,6.6,0h0
							c1.8,1.8,1.8,4.8,0,6.6C5.7,24.5,4.6,25,3.3,25z M3.3,19.2c-0.3,0-0.6,0.1-0.8,0.3c-0.2,0.2-0.3,0.5-0.3,0.8s0.1,0.6,0.3,0.8
							c0.4,0.4,1.2,0.4,1.6,0c0.5-0.5,0.5-1.2,0-1.7C3.9,19.3,3.6,19.2,3.3,19.2z"/>
						<path class="st2" d="M21.1,24.7c-1.2,0-2.4-0.5-3.3-1.4c-0.9-0.9-1.4-2-1.4-3.3c0,0,0,0,0,0c0-2.6,2.1-4.7,4.7-4.7
							s4.7,2.1,4.7,4.7C25.8,22.6,23.7,24.6,21.1,24.7z M21.2,18.8c-0.6,0-1.2,0.5-1.2,1.2v0c0,0.3,0.1,0.6,0.3,0.8
							c0.2,0.2,0.5,0.3,0.8,0.3c0,0,0,0,0,0c0.7,0,1.2-0.5,1.2-1.2S21.8,18.8,21.2,18.8z"/>
						<path class="st2" d="M12.3,14.7c-1.2,0-2.4-0.5-3.3-1.4c-1.8-1.8-1.8-4.8,0-6.6c1.8-1.8,4.8-1.8,6.6,0C16.5,7.6,17,8.7,17,10
							c0,1.2-0.5,2.4-1.4,3.3C14.7,14.2,13.5,14.7,12.3,14.7z M12.3,8.8c-0.3,0-0.6,0.1-0.8,0.3c-0.5,0.5-0.5,1.2,0,1.6
							c0.5,0.5,1.2,0.5,1.7,0c0.2-0.2,0.3-0.5,0.3-0.8c0-0.3-0.1-0.6-0.3-0.8v0C12.9,8.9,12.6,8.8,12.3,8.8z"/>
						<path class="st2" d="M30,14.7c-1.2,0-2.4-0.5-3.3-1.4c-0.9-0.9-1.4-2.1-1.4-3.3c0-1.2,0.5-2.4,1.4-3.3
							c0.9-0.9,2.1-1.4,3.3-1.4c1.2,0,2.4,0.5,3.3,1.4l0,0c0.9,0.9,1.4,2.1,1.4,3.3c0,1.2-0.5,2.4-1.4,3.3
							C32.4,14.2,31.3,14.7,30,14.7z M30,8.8c-0.3,0-0.6,0.1-0.8,0.3C29,9.4,28.8,9.7,28.8,10c0,0.3,0.1,0.6,0.3,0.8
							c0.4,0.4,1.2,0.4,1.6,0c0.2-0.2,0.3-0.5,0.3-0.8c0-0.3-0.1-0.6-0.3-0.8v0C30.6,8.9,30.3,8.8,30,8.8z"/>
						<path class="st2" d="M23.1,19.6c-0.4,0-0.8-0.1-1.1-0.4c-0.7-0.6-0.8-1.7-0.2-2.5l4.8-5.8c0.6-0.7,1.7-0.8,2.5-0.2
							c0.7,0.6,0.8,1.7,0.2,2.5L24.5,19C24.1,19.4,23.7,19.6,23.1,19.6z"/>
						<path class="st2" d="M5.3,19.9c-0.4,0-0.8-0.1-1.1-0.4c-0.7-0.6-0.8-1.7-0.2-2.5L9,11c0.6-0.7,1.7-0.8,2.5-0.2
							c0.7,0.6,0.8,1.7,0.2,2.5l-5,6.1C6.3,19.7,5.8,19.9,5.3,19.9z"/>
						<path class="st2" d="M19.2,19.6c-0.5,0-1-0.2-1.3-0.6L13,13.2c-0.6-0.7-0.5-1.8,0.2-2.5c0.7-0.6,1.8-0.5,2.5,0.2l4.9,5.7
							c0.6,0.7,0.5,1.8-0.2,2.5C20,19.5,19.6,19.6,19.2,19.6z"/>
					</g>
				</g>
			</g>
		</g>
	</g>
</g>
</svg>
