<?xml version="1.0" encoding="utf-8"?>
<!-- Generator: Adobe Illustrator 24.3.0, SVG Export Plug-In . SVG Version: 6.00 Build 0)  -->
<svg version="1.1" id="Layer_1" xmlns="http://www.w3.org/2000/svg" xmlns:xlink="http://www.w3.org/1999/xlink" x="0px" y="0px"
	 viewBox="0 0 60 60" style="enable-background:new 0 0 60 60;" xml:space="preserve">
<style type="text/css">
	.st0{fill-rule:evenodd;clip-rule:evenodd;fill:#EFF4FE;}
	.st1{fill:none;}
	.st2{fill:#28457B;}
</style>
<desc>Created with Sketch.</desc>
<g id="Page-1">
	<g id="zarincard-copy-3" transform="translate(-1226.000000, -1022.000000)">
		<g id="Group-28" transform="translate(1226.000000, 1022.000000)">
			<g id="Group-15">
				<path id="Rectangle-7-Copy-4" class="st0" d="M21.8,0h16.4c7.6,0,10.3,0.8,13.1,2.3s4.9,3.7,6.4,6.4c1.5,2.8,2.3,5.5,2.3,13.1
					v16.4c0,7.6-0.8,10.3-2.3,13.1c-1.5,2.8-3.7,4.9-6.4,6.4c-2.8,1.5-5.5,2.3-13.1,2.3H21.8c-7.6,0-10.3-0.8-13.1-2.3
					c-2.8-1.5-4.9-3.7-6.4-6.4S0,45.8,0,38.2V21.8c0-7.6,0.8-10.3,2.3-13.1s3.7-4.9,6.4-6.4S14.2,0,21.8,0z"/>
			</g>
			<g id="Group-13" transform="translate(8.000000, 9.000000)">
				<g id="Group-8-Copy">
					<polygon id="Path" class="st1" points="43,43 0,43 0,0 43,0 					"/>
					<g id="Group-11" transform="translate(8.666667, 8.666667)">
						<path class="st2" d="M13,27.8H4.3c-3.4,0-6.1-2.7-6.1-6.1V4.3C-1.8,1,1-1.8,4.3-1.8h17.3c3.4,0,6.1,2.7,6.1,6.1V13
							c0,1-0.8,1.7-1.8,1.7S24.3,14,24.3,13V4.3c0-1.4-1.2-2.6-2.6-2.6H4.3c-1.4,0-2.6,1.1-2.6,2.6v17.3c0,1.4,1.2,2.6,2.6,2.6H13
							c1,0,1.7,0.8,1.7,1.8S14,27.8,13,27.8z"/>
						<path class="st2" d="M22.5,30.1c-1,0-1.8-0.8-1.8-1.8v-9.7c0-1,0.8-1.8,1.8-1.8s1.8,0.8,1.8,1.8v9.7
							C24.3,29.3,23.5,30.1,22.5,30.1z"/>
						<path class="st2" d="M27.3,25.3h-9.7c-1,0-1.7-0.8-1.7-1.8s0.8-1.8,1.7-1.8h9.7c1,0,1.8,0.8,1.8,1.8S28.3,25.3,27.3,25.3z"/>
					</g>
				</g>
				<path class="st2" d="M26.7,29.8c-0.7,0-1.4-0.5-1.7-1.2l-0.3-1c-0.1-0.3-0.2-0.5-0.4-0.7c-0.1-0.2-0.4-0.4-0.6-0.4h-4.3
					c-0.2,0-0.4,0.1-0.6,0.3c-0.2,0.2-0.3,0.5-0.4,0.8l-0.3,1c-0.3,0.9-1.3,1.4-2.2,1.1c-0.9-0.3-1.4-1.3-1.1-2.2l0.3-1
					c0.2-0.8,0.6-1.4,1.1-2c0.8-1,2-1.6,3.3-1.6h4.3c1.2,0,2.4,0.6,3.3,1.6c0.5,0.5,0.8,1.2,1.1,2l0.3,1c0.3,0.9-0.2,1.9-1.1,2.2
					C27,29.7,26.8,29.8,26.7,29.8z"/>
				<path class="st2" d="M21.5,22.2c-1.3,0-2.6-0.5-3.5-1.5c-1-1-1.5-2.2-1.5-3.6c0-1.3,0.5-2.6,1.5-3.5c0.9-0.9,2.2-1.5,3.5-1.5
					c0,0,0,0,0,0c1.3,0,2.6,0.5,3.5,1.5c0,0,0,0,0,0c0.9,0.9,1.4,2.2,1.4,3.5c0,1.3-0.5,2.6-1.5,3.5C24.1,21.7,22.8,22.2,21.5,22.2z
					 M21.5,15.7c-0.4,0-0.8,0.2-1,0.4c-0.3,0.3-0.4,0.7-0.5,1.1c0,0.4,0.2,0.8,0.4,1.1c0.6,0.6,1.5,0.6,2.1,0c0.3-0.3,0.4-0.7,0.4-1
					s-0.2-0.8-0.4-1.1c0,0,0,0,0,0C22.2,15.9,21.9,15.7,21.5,15.7z"/>
			</g>
		</g>
	</g>
</g>
</svg>
