<?xml version="1.0" encoding="utf-8"?>
<!-- Generator: Adobe Illustrator 24.3.0, SVG Export Plug-In . SVG Version: 6.00 Build 0)  -->
<svg version="1.1" id="Layer_1" xmlns="http://www.w3.org/2000/svg" xmlns:xlink="http://www.w3.org/1999/xlink" x="0px" y="0px"
	 viewBox="0 0 60 60" style="enable-background:new 0 0 60 60;" xml:space="preserve">
<style type="text/css">
	.st0{fill-rule:evenodd;clip-rule:evenodd;fill:#EFF4FE;}
	.st1{fill:none;}
	.st2{fill:#28457B;}
</style>
<desc>Created with Sketch.</desc>
<g id="Page-1">
	<g id="zarincard-copy-3" transform="translate(-1230.000000, -1138.000000)">
		<g id="Group-29" transform="translate(1230.000000, 1138.000000)">
			<g id="Group-16-Copy">
				<path id="Rectangle-7-Copy-3" class="st0" d="M21.8,0h16.4c7.6,0,10.3,0.8,13.1,2.3s4.9,3.7,6.4,6.4c1.5,2.8,2.3,5.5,2.3,13.1
					v16.4c0,7.6-0.8,10.3-2.3,13.1c-1.5,2.8-3.7,4.9-6.4,6.4c-2.8,1.5-5.5,2.3-13.1,2.3H21.8c-7.6,0-10.3-0.8-13.1-2.3
					c-2.8-1.5-4.9-3.7-6.4-6.4S0,45.8,0,38.2V21.8c0-7.6,0.8-10.3,2.3-13.1s3.7-4.9,6.4-6.4S14.2,0,21.8,0z"/>
			</g>
			<g id="Group-19" transform="translate(10.000000, 10.000000)">
				<g id="health-03">
					<polygon id="Path" class="st1" points="0,0 40,0 40,40 0,40 					"/>
				</g>
				<path class="st2" d="M26.5,6.6c-2.4,0-4.7,1-6.4,2.8c-1.6-1.7-4-2.8-6.4-2.8c-4.6,0-8.2,3.6-8.2,8.2c0,5.5,4.8,9.9,12.2,16.6
					l2.3,2.1l2.3-2.1c7.4-6.7,12.2-11.1,12.2-16.6C34.7,10.2,31.1,6.6,26.5,6.6z M31.1,14.8c0,3.9-4.4,7.9-11,13.9
					c-6.6-6-11-9.9-11-13.9c0-2.6,2-4.6,4.6-4.6c2,0,4,1.3,4.7,3.1c0.5,1.4,1.2,1.7,1.7,1.7c0,0,0,0,0,0c0.5,0,1.1-0.3,1.7-1.7
					c0.7-1.8,2.7-3.1,4.7-3.1C29.2,10.2,31.1,12.2,31.1,14.8z"/>
			</g>
		</g>
	</g>
</g>
</svg>
